<svg width="296" height="128" viewBox="0 0 296 128" fill="none" xmlns="http://www.w3.org/2000/svg">
<circle cx="8" cy="120" r="8" transform="rotate(90 8 120)" fill="#AF1E21" fill-opacity="0.7"/>
<circle cx="36" cy="120" r="8" transform="rotate(90 36 120)" fill="#AF1E21" fill-opacity="0.7"/>
<circle cx="64" cy="120" r="8" transform="rotate(90 64 120)" fill="#AF1E21" fill-opacity="0.7"/>
<circle cx="92" cy="120" r="8" transform="rotate(90 92 120)" fill="#AF1E21" fill-opacity="0.7"/>
<circle cx="120" cy="120" r="8" transform="rotate(90 120 120)" fill="#AF1E21" fill-opacity="0.7"/>
<circle cx="148" cy="120" r="8" transform="rotate(90 148 120)" fill="#AF1E21" fill-opacity="0.7"/>
<circle cx="176" cy="120" r="8" transform="rotate(90 176 120)" fill="#AF1E21" fill-opacity="0.7"/>
<circle cx="204" cy="120" r="8" transform="rotate(90 204 120)" fill="#AF1E21" fill-opacity="0.7"/>
<circle cx="232" cy="120" r="8" transform="rotate(90 232 120)" fill="#AF1E21" fill-opacity="0.7"/>
<circle cx="260" cy="120" r="8" transform="rotate(90 260 120)" fill="#AF1E21" fill-opacity="0.7"/>
<circle cx="8" cy="92" r="8" transform="rotate(90 8 92)" fill="#AF1E21" fill-opacity="0.7"/>
<circle cx="36" cy="92" r="8" transform="rotate(90 36 92)" fill="#AF1E21" fill-opacity="0.7"/>
<circle cx="64" cy="92" r="8" transform="rotate(90 64 92)" fill="#AF1E21" fill-opacity="0.7"/>
<circle cx="92" cy="92" r="8" transform="rotate(90 92 92)" fill="#AF1E21" fill-opacity="0.7"/>
<circle cx="120" cy="92" r="8" transform="rotate(90 120 92)" fill="#AF1E21" fill-opacity="0.7"/>
<circle cx="148" cy="92" r="8" transform="rotate(90 148 92)" fill="#AF1E21" fill-opacity="0.7"/>
<circle cx="176" cy="92" r="8" transform="rotate(90 176 92)" fill="#AF1E21" fill-opacity="0.7"/>
<circle cx="204" cy="92" r="8" transform="rotate(90 204 92)" fill="#AF1E21" fill-opacity="0.7"/>
<circle cx="8" cy="64" r="8" transform="rotate(90 8 64)" fill="#AF1E21" fill-opacity="0.7"/>
<circle cx="36" cy="64" r="8" transform="rotate(90 36 64)" fill="#AF1E21" fill-opacity="0.7"/>
<circle cx="64" cy="64" r="8" transform="rotate(90 64 64)" fill="#AF1E21" fill-opacity="0.7"/>
<circle cx="92" cy="64" r="8" transform="rotate(90 92 64)" fill="#AF1E21" fill-opacity="0.7"/>
<circle cx="120" cy="64" r="8" transform="rotate(90 120 64)" fill="#AF1E21" fill-opacity="0.7"/>
<circle cx="148" cy="64" r="8" transform="rotate(90 148 64)" fill="#AF1E21" fill-opacity="0.7"/>
<circle cx="176" cy="64" r="8" transform="rotate(90 176 64)" fill="#AF1E21" fill-opacity="0.7"/>
<circle cx="204" cy="64" r="8" transform="rotate(90 204 64)" fill="#AF1E21" fill-opacity="0.7"/>
<circle cx="8" cy="36" r="8" transform="rotate(90 8 36)" fill="#AF1E21" fill-opacity="0.7"/>
<circle cx="36" cy="36" r="8" transform="rotate(90 36 36)" fill="#AF1E21" fill-opacity="0.7"/>
<circle cx="64" cy="36" r="8" transform="rotate(90 64 36)" fill="#AF1E21" fill-opacity="0.7"/>
<circle cx="92" cy="36" r="8" transform="rotate(90 92 36)" fill="#AF1E21" fill-opacity="0.7"/>
<circle cx="120" cy="36" r="8" transform="rotate(90 120 36)" fill="#AF1E21" fill-opacity="0.7"/>
<circle cx="8" cy="8" r="8" transform="rotate(90 8 8)" fill="#AF1E21" fill-opacity="0.7"/>
<circle cx="232" cy="92" r="8" transform="rotate(90 232 92)" fill="#AF1E21" fill-opacity="0.7"/>
<circle cx="260" cy="92" r="8" transform="rotate(90 260 92)" fill="#AF1E21" fill-opacity="0.7"/>
<circle cx="288" cy="120" r="8" transform="rotate(90 288 120)" fill="#AF1E21" fill-opacity="0.7"/>
<circle cx="8" cy="120" r="8" transform="rotate(90 8 120)" fill="#AF1E21" fill-opacity="0.7"/>
<circle cx="36" cy="120" r="8" transform="rotate(90 36 120)" fill="#AF1E21" fill-opacity="0.7"/>
<circle cx="64" cy="120" r="8" transform="rotate(90 64 120)" fill="#AF1E21" fill-opacity="0.7"/>
<circle cx="92" cy="120" r="8" transform="rotate(90 92 120)" fill="#AF1E21" fill-opacity="0.7"/>
<circle cx="120" cy="120" r="8" transform="rotate(90 120 120)" fill="#AF1E21" fill-opacity="0.7"/>
<circle cx="148" cy="120" r="8" transform="rotate(90 148 120)" fill="#AF1E21" fill-opacity="0.7"/>
<circle cx="176" cy="120" r="8" transform="rotate(90 176 120)" fill="#AF1E21" fill-opacity="0.7"/>
<circle cx="204" cy="120" r="8" transform="rotate(90 204 120)" fill="#AF1E21" fill-opacity="0.7"/>
<circle cx="232" cy="120" r="8" transform="rotate(90 232 120)" fill="#AF1E21" fill-opacity="0.7"/>
<circle cx="260" cy="120" r="8" transform="rotate(90 260 120)" fill="#AF1E21" fill-opacity="0.7"/>
<circle cx="8" cy="92" r="8" transform="rotate(90 8 92)" fill="#AF1E21" fill-opacity="0.7"/>
<circle cx="36" cy="92" r="8" transform="rotate(90 36 92)" fill="#AF1E21" fill-opacity="0.7"/>
<circle cx="64" cy="92" r="8" transform="rotate(90 64 92)" fill="#AF1E21" fill-opacity="0.7"/>
<circle cx="92" cy="92" r="8" transform="rotate(90 92 92)" fill="#AF1E21" fill-opacity="0.7"/>
<circle cx="120" cy="92" r="8" transform="rotate(90 120 92)" fill="#AF1E21" fill-opacity="0.7"/>
<circle cx="148" cy="92" r="8" transform="rotate(90 148 92)" fill="#AF1E21" fill-opacity="0.7"/>
<circle cx="176" cy="92" r="8" transform="rotate(90 176 92)" fill="#AF1E21" fill-opacity="0.7"/>
<circle cx="204" cy="92" r="8" transform="rotate(90 204 92)" fill="#AF1E21" fill-opacity="0.7"/>
<circle cx="8" cy="64" r="8" transform="rotate(90 8 64)" fill="#AF1E21" fill-opacity="0.7"/>
<circle cx="36" cy="64" r="8" transform="rotate(90 36 64)" fill="#AF1E21" fill-opacity="0.7"/>
<circle cx="64" cy="64" r="8" transform="rotate(90 64 64)" fill="#AF1E21" fill-opacity="0.7"/>
<circle cx="92" cy="64" r="8" transform="rotate(90 92 64)" fill="#AF1E21" fill-opacity="0.7"/>
<circle cx="120" cy="64" r="8" transform="rotate(90 120 64)" fill="#AF1E21" fill-opacity="0.7"/>
<circle cx="148" cy="64" r="8" transform="rotate(90 148 64)" fill="#AF1E21" fill-opacity="0.7"/>
<circle cx="176" cy="64" r="8" transform="rotate(90 176 64)" fill="#AF1E21" fill-opacity="0.7"/>
<circle cx="204" cy="64" r="8" transform="rotate(90 204 64)" fill="#AF1E21" fill-opacity="0.7"/>
<circle cx="8" cy="36" r="8" transform="rotate(90 8 36)" fill="#AF1E21" fill-opacity="0.7"/>
<circle cx="36" cy="36" r="8" transform="rotate(90 36 36)" fill="#AF1E21" fill-opacity="0.7"/>
<circle cx="64" cy="36" r="8" transform="rotate(90 64 36)" fill="#AF1E21" fill-opacity="0.7"/>
<circle cx="92" cy="36" r="8" transform="rotate(90 92 36)" fill="#AF1E21" fill-opacity="0.7"/>
<circle cx="120" cy="36" r="8" transform="rotate(90 120 36)" fill="#AF1E21" fill-opacity="0.7"/>
<circle cx="8" cy="8" r="8" transform="rotate(90 8 8)" fill="#AF1E21" fill-opacity="0.7"/>
<circle cx="232" cy="92" r="8" transform="rotate(90 232 92)" fill="#AF1E21" fill-opacity="0.7"/>
<circle cx="260" cy="92" r="8" transform="rotate(90 260 92)" fill="#AF1E21" fill-opacity="0.7"/>
<circle cx="288" cy="120" r="8" transform="rotate(90 288 120)" fill="#AF1E21" fill-opacity="0.7"/>
</svg>
