<svg width="296" height="128" viewBox="0 0 296 128" fill="none" xmlns="http://www.w3.org/2000/svg">
<circle cx="8" cy="8" r="8" transform="matrix(0 1 1 0 280 112)" fill="#AF1E21" fill-opacity="0.7"/>
<circle cx="8" cy="8" r="8" transform="matrix(0 1 1 0 252 112)" fill="#AF1E21" fill-opacity="0.7"/>
<circle cx="8" cy="8" r="8" transform="matrix(0 1 1 0 224 112)" fill="#AF1E21" fill-opacity="0.7"/>
<circle cx="8" cy="8" r="8" transform="matrix(0 1 1 0 196 112)" fill="#AF1E21" fill-opacity="0.7"/>
<circle cx="8" cy="8" r="8" transform="matrix(0 1 1 0 168 112)" fill="#AF1E21" fill-opacity="0.7"/>
<circle cx="8" cy="8" r="8" transform="matrix(0 1 1 0 140 112)" fill="#AF1E21" fill-opacity="0.7"/>
<circle cx="8" cy="8" r="8" transform="matrix(0 1 1 0 112 112)" fill="#AF1E21" fill-opacity="0.7"/>
<circle cx="8" cy="8" r="8" transform="matrix(0 1 1 0 84 112)" fill="#AF1E21" fill-opacity="0.7"/>
<circle cx="8" cy="8" r="8" transform="matrix(0 1 1 0 56 112)" fill="#AF1E21" fill-opacity="0.7"/>
<circle cx="8" cy="8" r="8" transform="matrix(0 1 1 0 28 112)" fill="#AF1E21" fill-opacity="0.7"/>
<circle cx="8" cy="8" r="8" transform="matrix(0 1 1 0 280 84)" fill="#AF1E21" fill-opacity="0.7"/>
<circle cx="8" cy="8" r="8" transform="matrix(0 1 1 0 252 84)" fill="#AF1E21" fill-opacity="0.7"/>
<circle cx="8" cy="8" r="8" transform="matrix(0 1 1 0 224 84)" fill="#AF1E21" fill-opacity="0.7"/>
<circle cx="8" cy="8" r="8" transform="matrix(0 1 1 0 196 84)" fill="#AF1E21" fill-opacity="0.7"/>
<circle cx="8" cy="8" r="8" transform="matrix(0 1 1 0 168 84)" fill="#AF1E21" fill-opacity="0.7"/>
<circle cx="8" cy="8" r="8" transform="matrix(0 1 1 0 140 84)" fill="#AF1E21" fill-opacity="0.7"/>
<circle cx="8" cy="8" r="8" transform="matrix(0 1 1 0 112 84)" fill="#AF1E21" fill-opacity="0.7"/>
<circle cx="8" cy="8" r="8" transform="matrix(0 1 1 0 84 84)" fill="#AF1E21" fill-opacity="0.7"/>
<circle cx="8" cy="8" r="8" transform="matrix(0 1 1 0 280 56)" fill="#AF1E21" fill-opacity="0.7"/>
<circle cx="8" cy="8" r="8" transform="matrix(0 1 1 0 252 56)" fill="#AF1E21" fill-opacity="0.7"/>
<circle cx="8" cy="8" r="8" transform="matrix(0 1 1 0 224 56)" fill="#AF1E21" fill-opacity="0.7"/>
<circle cx="8" cy="8" r="8" transform="matrix(0 1 1 0 196 56)" fill="#AF1E21" fill-opacity="0.7"/>
<circle cx="8" cy="8" r="8" transform="matrix(0 1 1 0 168 56)" fill="#AF1E21" fill-opacity="0.7"/>
<circle cx="8" cy="8" r="8" transform="matrix(0 1 1 0 140 56)" fill="#AF1E21" fill-opacity="0.7"/>
<circle cx="8" cy="8" r="8" transform="matrix(0 1 1 0 112 56)" fill="#AF1E21" fill-opacity="0.7"/>
<circle cx="8" cy="8" r="8" transform="matrix(0 1 1 0 84 56)" fill="#AF1E21" fill-opacity="0.7"/>
<circle cx="8" cy="8" r="8" transform="matrix(0 1 1 0 280 28)" fill="#AF1E21" fill-opacity="0.7"/>
<circle cx="8" cy="8" r="8" transform="matrix(0 1 1 0 252 28)" fill="#AF1E21" fill-opacity="0.7"/>
<circle cx="8" cy="8" r="8" transform="matrix(0 1 1 0 224 28)" fill="#AF1E21" fill-opacity="0.7"/>
<circle cx="8" cy="8" r="8" transform="matrix(0 1 1 0 196 28)" fill="#AF1E21" fill-opacity="0.7"/>
<circle cx="8" cy="8" r="8" transform="matrix(0 1 1 0 168 28)" fill="#AF1E21" fill-opacity="0.7"/>
<circle cx="8" cy="8" r="8" transform="matrix(0 1 1 0 280 0)" fill="#AF1E21" fill-opacity="0.7"/>
<circle cx="8" cy="8" r="8" transform="matrix(0 1 1 0 56 84)" fill="#AF1E21" fill-opacity="0.7"/>
<circle cx="8" cy="8" r="8" transform="matrix(0 1 1 0 28 84)" fill="#AF1E21" fill-opacity="0.7"/>
<circle cx="8" cy="8" r="8" transform="matrix(0 1 1 0 0 112)" fill="#AF1E21" fill-opacity="0.7"/>
<circle cx="8" cy="8" r="8" transform="matrix(0 1 1 0 280 112)" fill="#AF1E21" fill-opacity="0.7"/>
<circle cx="8" cy="8" r="8" transform="matrix(0 1 1 0 252 112)" fill="#AF1E21" fill-opacity="0.7"/>
<circle cx="8" cy="8" r="8" transform="matrix(0 1 1 0 224 112)" fill="#AF1E21" fill-opacity="0.7"/>
<circle cx="8" cy="8" r="8" transform="matrix(0 1 1 0 196 112)" fill="#AF1E21" fill-opacity="0.7"/>
<circle cx="8" cy="8" r="8" transform="matrix(0 1 1 0 168 112)" fill="#AF1E21" fill-opacity="0.7"/>
<circle cx="8" cy="8" r="8" transform="matrix(0 1 1 0 140 112)" fill="#AF1E21" fill-opacity="0.7"/>
<circle cx="8" cy="8" r="8" transform="matrix(0 1 1 0 112 112)" fill="#AF1E21" fill-opacity="0.7"/>
<circle cx="8" cy="8" r="8" transform="matrix(0 1 1 0 84 112)" fill="#AF1E21" fill-opacity="0.7"/>
<circle cx="8" cy="8" r="8" transform="matrix(0 1 1 0 56 112)" fill="#AF1E21" fill-opacity="0.7"/>
<circle cx="8" cy="8" r="8" transform="matrix(0 1 1 0 28 112)" fill="#AF1E21" fill-opacity="0.7"/>
<circle cx="8" cy="8" r="8" transform="matrix(0 1 1 0 280 84)" fill="#AF1E21" fill-opacity="0.7"/>
<circle cx="8" cy="8" r="8" transform="matrix(0 1 1 0 252 84)" fill="#AF1E21" fill-opacity="0.7"/>
<circle cx="8" cy="8" r="8" transform="matrix(0 1 1 0 224 84)" fill="#AF1E21" fill-opacity="0.7"/>
<circle cx="8" cy="8" r="8" transform="matrix(0 1 1 0 196 84)" fill="#AF1E21" fill-opacity="0.7"/>
<circle cx="8" cy="8" r="8" transform="matrix(0 1 1 0 168 84)" fill="#AF1E21" fill-opacity="0.7"/>
<circle cx="8" cy="8" r="8" transform="matrix(0 1 1 0 140 84)" fill="#AF1E21" fill-opacity="0.7"/>
<circle cx="8" cy="8" r="8" transform="matrix(0 1 1 0 112 84)" fill="#AF1E21" fill-opacity="0.7"/>
<circle cx="8" cy="8" r="8" transform="matrix(0 1 1 0 84 84)" fill="#AF1E21" fill-opacity="0.7"/>
<circle cx="8" cy="8" r="8" transform="matrix(0 1 1 0 280 56)" fill="#AF1E21" fill-opacity="0.7"/>
<circle cx="8" cy="8" r="8" transform="matrix(0 1 1 0 252 56)" fill="#AF1E21" fill-opacity="0.7"/>
<circle cx="8" cy="8" r="8" transform="matrix(0 1 1 0 224 56)" fill="#AF1E21" fill-opacity="0.7"/>
<circle cx="8" cy="8" r="8" transform="matrix(0 1 1 0 196 56)" fill="#AF1E21" fill-opacity="0.7"/>
<circle cx="8" cy="8" r="8" transform="matrix(0 1 1 0 168 56)" fill="#AF1E21" fill-opacity="0.7"/>
<circle cx="8" cy="8" r="8" transform="matrix(0 1 1 0 140 56)" fill="#AF1E21" fill-opacity="0.7"/>
<circle cx="8" cy="8" r="8" transform="matrix(0 1 1 0 112 56)" fill="#AF1E21" fill-opacity="0.7"/>
<circle cx="8" cy="8" r="8" transform="matrix(0 1 1 0 84 56)" fill="#AF1E21" fill-opacity="0.7"/>
<circle cx="8" cy="8" r="8" transform="matrix(0 1 1 0 280 28)" fill="#AF1E21" fill-opacity="0.7"/>
<circle cx="8" cy="8" r="8" transform="matrix(0 1 1 0 252 28)" fill="#AF1E21" fill-opacity="0.7"/>
<circle cx="8" cy="8" r="8" transform="matrix(0 1 1 0 224 28)" fill="#AF1E21" fill-opacity="0.7"/>
<circle cx="8" cy="8" r="8" transform="matrix(0 1 1 0 196 28)" fill="#AF1E21" fill-opacity="0.7"/>
<circle cx="8" cy="8" r="8" transform="matrix(0 1 1 0 168 28)" fill="#AF1E21" fill-opacity="0.7"/>
<circle cx="8" cy="8" r="8" transform="matrix(0 1 1 0 280 0)" fill="#AF1E21" fill-opacity="0.7"/>
<circle cx="8" cy="8" r="8" transform="matrix(0 1 1 0 56 84)" fill="#AF1E21" fill-opacity="0.7"/>
<circle cx="8" cy="8" r="8" transform="matrix(0 1 1 0 28 84)" fill="#AF1E21" fill-opacity="0.7"/>
<circle cx="8" cy="8" r="8" transform="matrix(0 1 1 0 0 112)" fill="#AF1E21" fill-opacity="0.7"/>
</svg>
